# xmcd
#
# Track frame offsets: 
#        150
#        11690
#        23057
#        33957
#        46200
#        61202
#        72960
#        83805
#        95242
#        109220
#        121772
#        132662
#        143075
#        156877
#        166620
#        178197
#
# Disc length: 2525 seconds
#
# Revision: 4
# Processed by: cddbd v1.5.2PL0 Copyright (c) Steve Scherf et al.
# Submitted via: ExactAudioCopyFreeDBPlugin 1.0
#
DISCID=d309db10
DTITLE=Various Artist - Storm Warning:  Philly Original Soul Classics
DTITLE=, Volume 1
DYEAR=1998
DGENRE=Soul
TTITLE0=The Volcanoes - You're Number One
TTITLE1=The Fantastic Johnny C - Boogaloo Down Broadway
TTITLE2=The Ethics - Standing in the Darkness
TTITLE3=The Volcanoes - Storm Warning
TTITLE4=Brenda and The Tabulations - Right on The Tip of My Tongue
TTITLE5=Harold Melvin and The Blue Notes - You May Not Love Me
TTITLE6=The Temptations - Girl I Love You
TTITLE7=The Volcanoes - Baby
TTITLE8=Brenda and The Tabulations - The Touch of You
TTITLE9=Kenny Gamble - The Jokes on You
TTITLE10=The Ethics - That's the Way Love Goes
TTITLE11=Harold Melvin and The Blue Notes - Get Out (And Let Me Cry)
TTITLE12=The Temptones - Say These Words of Love
TTITLE13=The Volcanoes - Make Your Move
TTITLE14=Kenny Gamble - Don't Stop Loving Me
TTITLE15=The Volcanoes - Help Wanted
EXTD=
EXTT0=
EXTT1=
EXTT2=
EXTT3=
EXTT4=
EXTT5=
EXTT6=
EXTT7=
EXTT8=
EXTT9=
EXTT10=
EXTT11=
EXTT12=
EXTT13=
EXTT14=
EXTT15=
PLAYORDER=
